<?xml version="1.0" encoding="UTF-8" standalone="no"?>
<!-- Created with Inkscape (http://www.inkscape.org/) -->

<svg
   xmlns:dc="http://purl.org/dc/elements/1.1/"
   xmlns:cc="http://creativecommons.org/ns#"
   xmlns:rdf="http://www.w3.org/1999/02/22-rdf-syntax-ns#"
   xmlns:svg="http://www.w3.org/2000/svg"
   xmlns="http://www.w3.org/2000/svg"
   xmlns:sodipodi="http://sodipodi.sourceforge.net/DTD/sodipodi-0.dtd"
   xmlns:inkscape="http://www.inkscape.org/namespaces/inkscape"
   width="53.149597"
   height="53.149609"
   id="svg4234"
   version="1.1"
   inkscape:version="0.48.4 r9939"
   sodipodi:docname="logo-small.svg">
  <defs
     id="defs4236" />
  <sodipodi:namedview
     id="base"
     pagecolor="#ffffff"
     bordercolor="#666666"
     borderopacity="1.0"
     inkscape:pageopacity="0.0"
     inkscape:pageshadow="2"
     inkscape:zoom="1.979899"
     inkscape:cx="33.937499"
     inkscape:cy="30.481568"
     inkscape:document-units="px"
     inkscape:current-layer="layer1"
     showgrid="false"
     fit-margin-top="0"
     fit-margin-left="0"
     fit-margin-right="0"
     fit-margin-bottom="0"
     inkscape:window-width="506"
     inkscape:window-height="417"
     inkscape:window-x="776"
     inkscape:window-y="149"
     inkscape:window-maximized="0" />
  <metadata
     id="metadata4239">
    <rdf:RDF>
      <cc:Work
         rdf:about="">
        <dc:format>image/svg+xml</dc:format>
        <dc:type
           rdf:resource="http://purl.org/dc/dcmitype/StillImage" />
      </cc:Work>
    </rdf:RDF>
  </metadata>
  <g
     inkscape:label="Layer 1"
     inkscape:groupmode="layer"
     id="layer1"
     transform="translate(-338.16468,-505.78738)">
    <path
       inkscape:connector-curvature="0"
       d="m 372.79945,529.7225 c 5.34952,-2.43616 5.91097,-2.65092 6.93822,-2.65393 3.14004,-0.009 5.3759,2.87196 4.67261,6.02121 -0.51951,2.32633 -3.07132,3.91466 -5.58669,3.47733 -0.60861,-0.10581 -3.23074,-0.99655 -6.43586,-2.18626 l -5.40881,-2.0077 5.82053,-2.65065 z m -4.2873,-5.1483 c 1.9874,-5.22907 2.32536,-6.01669 2.77881,-6.47596 0.82965,-0.8403 1.85274,-1.36953 2.97847,-1.5407 0.90058,-0.13693 1.22414,-0.095 2.2768,0.29515 1.05266,0.39015 1.32539,0.56921 1.91917,1.26 1.20386,1.40053 1.52614,3.10915 0.90756,4.81159 -0.65861,1.81262 -1.04644,2.0737 -7.40514,4.98498 l -5.71824,2.61804 2.26257,-5.9531 z m -6.51245,-0.68442 c -2.54327,-5.57772 -2.63078,-5.81205 -2.55529,-6.84191 0.22578,-3.0801 3.12462,-5.12316 6.10879,-4.30538 1.89986,0.52063 3.26544,2.2341 3.41864,4.28956 l 0.0739,0.99208 -2.20631,5.82058 -2.2063,5.82059 -2.63347,-5.77552 z m -10.90332,2.34844 c -2.17362,-1.38406 -2.86964,-4.4018 -1.50189,-6.51182 1.07983,-1.66585 2.94141,-2.51619 4.86947,-2.22431 1.25258,0.18962 2.28739,0.84263 3.04525,1.92167 0.31383,0.44683 1.65046,3.20273 2.97029,6.12421 l 2.3997,5.3118 -5.47184,-2.04362 c -3.59045,-1.34097 -5.76036,-2.22733 -6.31097,-2.57793 z m -4.12783,10.56746 c -2.06495,-1.4974 -2.65085,-4.38538 -1.30949,-6.45468 1.10591,-1.70609 3.03539,-2.51951 5.05395,-2.13061 0.72978,0.1406 3.08415,0.95585 6.33725,2.19441 l 5.17609,1.9707 -5.59275,2.57291 c -3.40534,1.56661 -5.92159,2.61363 -6.43356,2.677 -1.08113,0.13384 -2.35309,-0.19275 -3.23149,-0.82973 z m 4.83941,10.53907 c -2.05172,-1.48781 -2.64357,-4.39663 -1.31241,-6.4502 0.28909,-0.44597 0.85804,-1.05149 1.26435,-1.34561 0.40631,-0.29412 3.16738,-1.64424 6.13571,-3.00026 l 5.39696,-2.4655 -2.29233,6.03511 c -2.23827,5.89277 -2.30766,6.04962 -2.94208,6.65021 -1.76326,1.66925 -4.40683,1.91298 -6.2502,0.57625 l 0,0 z m 10.76685,4.04814 c -1.19665,-0.81526 -1.97783,-2.18231 -2.13898,-3.74316 -0.0897,-0.86932 -0.0409,-1.03078 2.10529,-6.96034 l 2.19716,-6.07038 2.62275,5.72422 c 2.93816,6.41263 3.05158,6.82926 2.36412,8.684 -0.88085,2.37649 -3.26161,3.60758 -5.73928,2.96778 -0.46702,-0.1206 -1.102,-0.39154 -1.41106,-0.60212 l 0,0 z m 10.42197,-4.93558 c -1.02308,-0.74271 -1.62707,-1.81389 -4.19846,-7.44605 l -2.36214,-5.17382 6.03571,2.29117 c 5.75421,2.18432 6.06471,2.32035 6.65783,2.91673 2.40611,2.4194 1.71526,6.43755 -1.3487,7.8444 -1.53468,0.70465 -3.45729,0.53088 -4.78424,-0.43243 z m 17.62277,-14.09513 c 0,14.29317 -11.5869,25.88008 -25.88007,25.88008 -14.29317,0 -25.88007,-11.58691 -25.88007,-25.88008 0,-14.29317 11.5869,-25.88007 25.88007,-25.88007 14.29317,0 25.88007,11.5869 25.88007,25.88007 z"
       style="fill:#ffffff;fill-opacity:0;stroke:#000000;stroke-width:1.38945842;stroke-miterlimit:4;stroke-opacity:1;stroke-dasharray:none;stroke-dashoffset:0"
       id="path4243" />
  </g>
</svg>
